<svg width="1366" height="877" viewBox="0 0 1366 877" fill="none" xmlns="http://www.w3.org/2000/svg">
<g clip-path="url(#clip0_1986_368)">
<path d="M1365.39 632.195H660.745V644.928H1365.39V632.195Z" fill="white"/>
<path fill-rule="evenodd" clip-rule="evenodd" d="M99.23 538.101L137.91 376.282H179.446L140.766 538.101H99.23ZM0 609.348H167.777L216.086 567.087L268.558 347.386L240.404 305.125H72.7088L0 609.348Z" fill="#ED1C24"/>
<path fill-rule="evenodd" clip-rule="evenodd" d="M732.556 603.299H791.065L810.324 586.503L825.992 520.945H783.803L778.172 544.604H787.883L779.478 579.64H755.486L776.622 491.146H800.613L797.104 505.774H829.582L834.723 484.373L823.544 467.577H765.034L745.775 484.373L721.376 586.503L732.556 603.299ZM874.464 522.119L881.89 491.055H905.882C903.434 501.44 900.986 511.734 898.456 522.119H874.464ZM822.646 602.938H855.124L864.345 564.379H872.098L881.645 602.938H917.225L904.331 550.834L929.302 528.982C932.893 514.082 936.402 499.182 939.992 484.283L928.812 467.487H855.043L822.646 603.028V602.938ZM989.036 491.055H1013.03L991.892 579.55H967.901L989.036 491.055ZM1022.74 586.413L1047.14 484.283L1035.96 467.487H977.448L958.19 484.283L933.79 586.413L944.97 603.209H1003.48L1022.74 586.413ZM1129.07 586.413L1157.47 467.396H1124.99L1098.22 579.55H1074.23L1101 467.396H1068.52L1040.12 586.413L1051.3 603.209H1109.81L1129.07 586.413ZM1224.46 491.055L1217.77 519.139H1194.19L1200.88 491.055H1224.46ZM1141.63 602.938H1174.11L1188.48 542.798H1229.36L1248.62 526.002L1258.57 484.283L1247.39 467.487H1174.03L1141.63 603.028V602.938Z" fill="white"/>
<path fill-rule="evenodd" clip-rule="evenodd" d="M653.4 395.064H735.657L747.081 347.386L719.01 305.125H588.199L539.89 347.386C531.648 381.79 523.487 416.195 515.245 450.599L543.399 492.86H630.225L619.372 538.101H576.611L581.099 519.408H498.843L487.418 567.087L515.572 609.348H646.382L694.692 567.087L719.336 463.874L691.183 421.613H604.356L615.21 376.372H657.97L653.482 395.064H653.4Z" fill="#ED1C24"/>
<path fill-rule="evenodd" clip-rule="evenodd" d="M417.239 395.064H499.496L510.92 347.386L482.849 305.125H351.957L303.647 347.386C295.405 381.79 287.245 416.195 279.003 450.599L307.156 492.86H393.982L383.129 538.101H340.369L344.857 519.408H262.601L251.176 567.087L279.329 609.348H410.14L458.449 567.087L483.094 463.874L454.94 421.613H368.114L378.967 376.372H421.728L417.239 395.064Z" fill="#ED1C24"/>
<path fill-rule="evenodd" clip-rule="evenodd" d="M6.03857 668.766H144.112C179.528 707.595 216.576 738.839 255.256 763.22C324.211 806.564 408.181 834.558 487.826 821.645C514.755 817.31 542.827 808.19 572.286 792.748C543.643 819.839 515.572 838.802 487.908 851.895C384.843 900.658 283.736 872.755 187.362 817.4C126.812 782.635 66.3436 733.24 6.03857 668.766Z" fill="#ED1C24"/>
<path fill-rule="evenodd" clip-rule="evenodd" d="M255.011 724.211C283.572 739.021 312.623 749.405 342.245 754.823C401.327 765.569 455.43 757.623 502.76 713.917C519.897 698.114 532.708 678.7 540.379 655.041H635.447C613.986 697.121 587.464 731.345 554.496 755.365C489.05 803.044 424.665 798.619 352.772 773.877C318.744 762.228 286.265 745.522 255.011 724.211Z" fill="white"/>
<path fill-rule="evenodd" clip-rule="evenodd" d="M83.3984 277.765H151.945C176.59 244.715 203.193 215.909 231.672 191.438C286.755 144.12 353.751 106.375 425.318 111.522C453.144 113.508 482.848 122.177 515.326 140.96C482.848 113.418 453.063 96.622 425.236 87.7726C344.53 62.2175 256.317 110.528 192.339 162.542C150.885 196.314 116.04 236.046 83.3984 277.765Z" fill="white"/>
<path fill-rule="evenodd" clip-rule="evenodd" d="M614.72 264.04H730.189C725.619 222.411 718.112 182.137 704.321 144.753C678.534 74.6796 635.774 23.2985 566.982 6.32197C498.027 -10.7449 434.702 9.7534 370.888 36.4824C339.226 49.7566 308.217 64.9271 278.023 82.1745C309.93 69.713 342.164 62.3987 374.805 59.6897C436.416 54.6328 499.659 62.2181 545.03 102.673C586.485 139.606 609.334 206.97 614.802 264.04" fill="#ED1C24"/>
</g>
<defs>
<clipPath id="clip0_1986_368">
<rect width="1365.31" height="877" fill="white"/>
</clipPath>
</defs>
</svg>
