<svg width="192" height="124" viewBox="0 0 192 124" fill="none" xmlns="http://www.w3.org/2000/svg">
<g clip-path="url(#clip0_233_40)">
<path d="M192.012 88.9039H92.9188V90.6944H192.012V88.9039Z" fill="black"/>
<path fill-rule="evenodd" clip-rule="evenodd" d="M13.9545 75.6718L19.3939 52.9157H25.2351L19.7956 75.6718H13.9545ZM0 85.6911H23.5941L30.3877 79.7481L37.7665 48.8521L33.8074 42.9091H10.2249L0 85.6911Z" fill="#ED1C24"/>
<path fill-rule="evenodd" clip-rule="evenodd" d="M103.017 84.8404H111.245L113.954 82.4784L116.157 73.2591H110.224L109.432 76.5862H110.798L109.616 81.5133H106.242L109.214 69.0685H112.588L112.095 71.1257H116.662L117.385 68.1161L115.813 65.7542H107.585L104.876 68.1161L101.445 82.4784L103.017 84.8404ZM122.974 73.4242L124.018 69.0558H127.392C127.047 70.5162 126.703 71.9638 126.347 73.4242H122.974ZM115.687 84.7896H120.254L121.551 79.3672H122.641L123.983 84.7896H128.987L127.174 77.4624L130.685 74.3893C131.19 72.294 131.684 70.1987 132.189 68.1034L130.616 65.7415H120.242L115.687 84.8023V84.7896ZM139.085 69.0558H142.459L139.487 81.5006H136.113L139.085 69.0558ZM143.825 82.4657L147.256 68.1034L145.684 65.7415H137.456L134.748 68.1034L131.316 82.4657L132.889 84.8277H141.117L143.825 82.4657ZM158.778 82.4657L162.771 65.7288H158.204L154.44 81.5006H151.066L154.83 65.7288H150.263L146.269 82.4657L147.841 84.8277H156.07L158.778 82.4657ZM172.193 69.0558L171.252 73.0051H167.935L168.876 69.0558H172.193ZM160.545 84.7896H165.112L167.132 76.3322H172.881L175.59 73.9702L176.99 68.1034L175.418 65.7415H165.101L160.545 84.8023V84.7896Z" fill="black"/>
<path fill-rule="evenodd" clip-rule="evenodd" d="M91.886 55.557H103.454L105.06 48.8521L101.112 42.9091H82.7169L75.9233 48.8521C74.7643 53.6903 73.6167 58.5285 72.4576 63.3667L76.4168 69.3097H88.6269L87.1006 75.6718H81.0874L81.7185 73.0432H70.151L68.5444 79.7481L72.5036 85.6911H90.8991L97.6927 79.7481L101.158 65.2334L97.1993 59.2904H84.9891L86.5154 52.9284H92.5286L91.8975 55.557H91.886Z" fill="#ED1C24"/>
<path fill-rule="evenodd" clip-rule="evenodd" d="M58.6753 55.557H70.2428L71.8494 48.8521L67.9018 42.9091H49.4948L42.7011 48.8521C41.5421 53.6903 40.3945 58.5285 39.2355 63.3667L43.1946 69.3097H55.4047L53.8785 75.6718H47.8652L48.4964 73.0432H36.9289L35.3223 79.7481L39.2814 85.6911H57.6769L64.4706 79.7481L67.9362 65.2334L63.9771 59.2904H51.7669L53.2932 52.9284H59.3065L58.6753 55.557Z" fill="#ED1C24"/>
<path fill-rule="evenodd" clip-rule="evenodd" d="M0.849243 94.0469H20.2661C25.2466 99.5073 30.4566 103.901 35.896 107.33C45.593 113.425 57.4015 117.362 68.6018 115.546C72.3888 114.936 76.3364 113.654 80.4792 111.482C76.4512 115.292 72.5035 117.959 68.6133 119.8C54.1195 126.657 39.9011 122.733 26.3483 114.949C17.8333 110.06 9.32979 103.114 0.849243 94.0469Z" fill="#ED1C24"/>
<path fill-rule="evenodd" clip-rule="evenodd" d="M35.8616 101.844C39.8781 103.927 43.9634 105.387 48.1291 106.149C56.4375 107.66 64.0459 106.542 70.7018 100.396C73.1117 98.174 74.9134 95.4438 75.9921 92.1167H89.3613C86.3432 98.0343 82.6136 102.847 77.9774 106.225C68.7739 112.93 59.7196 112.308 49.6095 108.828C44.8241 107.19 40.2568 104.841 35.8616 101.844Z" fill="black"/>
<path fill-rule="evenodd" clip-rule="evenodd" d="M11.7281 39.0613H21.3677C24.8334 34.4136 28.5745 30.3627 32.5795 26.9213C40.3256 20.2672 49.7472 14.9591 59.8114 15.683C63.7246 15.9623 67.9017 17.1814 72.4691 19.8227C67.9017 15.9496 63.7131 13.5877 59.7999 12.3432C48.4504 8.74944 36.0452 15.5433 27.0482 22.8577C21.2186 27.6071 16.3184 33.1945 11.7281 39.0613Z" fill="black"/>
<path fill-rule="evenodd" clip-rule="evenodd" d="M86.4464 37.1313H102.685C102.042 31.2772 100.986 25.6136 99.0467 20.3563C95.4204 10.5021 89.4071 3.27647 79.7331 0.889103C70.0362 -1.51096 61.131 1.37166 52.157 5.13048C47.7044 6.9972 43.3437 9.13059 39.0977 11.556C43.5847 9.80362 48.1176 8.77502 52.7078 8.39406C61.372 7.68293 70.2657 8.74963 76.6462 14.4387C82.4758 19.6324 85.689 29.1057 86.4579 37.1313" fill="#ED1C24"/>
</g>
<defs>
<clipPath id="clip0_233_40">
<rect width="192" height="123.33" fill="white"/>
</clipPath>
</defs>
</svg>
