<svg width="3092" height="1408" viewBox="0 0 3092 1408" fill="none" xmlns="http://www.w3.org/2000/svg">
<path fill-rule="evenodd" clip-rule="evenodd" d="M1790.59 931.588H1910.93L1950.54 900.369L1982.76 778.515H1895.99L1884.41 822.49H1904.38L1887.1 887.613H1837.75L1881.22 723.127H1930.57L1923.35 750.318H1990.15L2000.72 710.539L1977.73 679.32H1857.39L1817.78 710.539L1767.6 900.369L1790.59 931.588ZM2082.46 780.697L2097.73 722.959H2147.08C2142.04 742.261 2137.01 761.395 2131.8 780.697H2082.46ZM1975.88 930.917H2042.68L2061.65 859.248H2077.59L2097.23 930.917H2170.41L2143.89 834.071L2195.25 793.453C2202.63 765.759 2209.85 738.065 2217.23 710.371L2194.24 679.152H2042.51L1975.88 931.085V930.917ZM2318.1 722.959H2367.45L2323.98 887.445H2274.63L2318.1 722.959ZM2387.42 900.201L2437.6 710.371L2414.61 679.152H2294.27L2254.66 710.371L2204.48 900.201L2227.47 931.42H2347.81L2387.42 900.201ZM2606.11 900.201L2664.52 678.984H2597.72L2542.67 887.445H2493.33L2548.38 678.984H2481.58L2423.17 900.201L2446.16 931.42H2566.5L2606.11 900.201ZM2802.32 722.959L2788.55 775.158H2740.05L2753.81 722.959H2802.32ZM2631.96 930.917H2698.76L2728.3 819.133H2812.39L2852 787.914L2872.47 710.371L2849.48 679.152H2698.59L2631.96 931.085V930.917Z" fill="#EE0000"/>
<path fill-rule="evenodd" clip-rule="evenodd" d="M1627.79 544.554H1796.97L1820.47 455.933L1762.73 377.383H1493.69L1394.33 455.933C1377.38 519.881 1360.59 583.83 1343.64 647.778L1401.54 726.328H1580.12L1557.8 810.418H1469.85L1479.08 775.674H1309.9L1286.41 864.295L1344.31 942.846H1613.35L1712.71 864.295L1763.4 672.451L1705.5 593.9H1526.92L1549.24 509.811H1637.19L1627.96 544.554H1627.79Z" fill="#EE0000"/>
<path fill-rule="evenodd" clip-rule="evenodd" d="M1142.06 544.554H1311.24L1334.74 455.933L1277.01 377.383H1007.79L908.434 455.933C891.483 519.881 874.699 583.83 857.747 647.778L915.651 726.328H1094.23L1071.91 810.418H983.961L993.192 775.674H824.012L800.515 864.295L858.419 942.846H1127.46L1226.82 864.295L1277.51 672.451L1219.61 593.9H1041.03L1063.35 509.811H1151.3L1142.06 544.554Z" fill="#EE0000"/>
<path fill-rule="evenodd" clip-rule="evenodd" d="M487.999 810.418L567.554 509.643H652.983L573.428 810.418H487.999ZM283.908 942.846H628.982L728.342 864.295L836.262 455.933L778.358 377.383H433.452L283.908 942.846Z" fill="#EE0000"/>
</svg>
